<svg width="121" height="97" viewBox="0 0 121 97" fill="none" xmlns="http://www.w3.org/2000/svg">
<g clip-path="url(#clip0_0_253)">
<path d="M55.2564 46.2395C38.2501 48.9803 36.1526 79.4394 37.7257 96.9999H51.2316C51.2316 96.9999 51.2316 96.9152 51.2316 96.8728C50.3387 89.8231 48.794 66.8375 55.4406 63.3763C65.942 57.9089 70.7888 83.494 72.0643 97.0141H85.7119C84.2522 75.2293 74.7286 43.1173 55.2564 46.2537V46.2395Z" fill="#64651C"/>
<path d="M21.9807 48.3588C17.3323 61.8506 16.4678 83.5223 17.2614 97H30.6681C30.0303 87.8454 30.3138 70.2989 32.7372 60.7204C36.762 44.7562 50.9765 35.7711 64.2556 39.9387C82.5374 45.6887 88.5604 75.7098 90.4028 97H104.065C103.016 82.9714 100.337 61.3561 93.96 48.1751C86.548 32.8749 73.4248 22.1945 58.7143 22.1097C44.0889 22.0249 27.9045 31.1655 21.9807 48.3588Z" fill="#F1B940"/>
<path d="M11.3233 26.0371C2.29582 44.4878 -0.311816 75.3707 0.0283109 97H13.5342C13.3358 82.3356 14.6538 59.2087 18.962 45.2931C25.226 25.1047 42.9409 14.8622 60.089 17.0661C68.0253 18.0833 76.8402 22.0108 84.0537 26.2491C92.4719 31.1937 96.0857 39.3453 99.2177 49.9834C102.987 62.783 105.765 83.9461 107.267 97H121C119.186 77.9419 115.034 50.5203 108.33 33.3694C100.068 12.2062 78.0307 1.92136 60.089 0.183669C43.4511 -1.42688 20.4784 7.36048 11.3233 26.0371Z" fill="#F44730"/>
</g>
<defs>
<clipPath id="clip0_0_253">
<rect width="121" height="97" fill="white"/>
</clipPath>
</defs>
</svg>
