<svg width="122" height="110" viewBox="0 0 122 110" fill="none" xmlns="http://www.w3.org/2000/svg">
<g clip-path="url(#clip0_0_248)">
<path d="M114.456 47.5038C105.607 66.9035 102.667 84.2495 79.4054 90.6476C54.7759 97.4248 34.3273 84.3917 26.9558 60.1894C19.2542 34.9288 46.3827 17.2037 69.1261 22.9383C81.4487 26.0504 85.8496 37.5196 84.4665 49.0678C83.3348 58.6255 74.4858 68.9572 64.6309 64.4548C59.7427 62.2274 57.4794 57.0299 59.1297 53.8703C67.0199 53.8703 76.9063 47.883 71.6252 38.5465C64.7566 26.3822 47.2629 34.7392 41.7146 43.4912C31.7654 59.21 44.2766 75.3869 58.6425 80.4106C75.8689 86.4296 93.787 79.2574 100.797 61.4375C116.97 20.4264 68.466 -13.4914 32.4098 5.33952C15.9535 13.9335 2.95501 29.3522 0.424477 48.1673C-2.35754 68.973 8.77052 89.7155 25.3369 99.8735C45.1096 112.006 69.8334 113.159 91.9795 103.776C114.267 94.3443 120.806 72.101 121.984 49.5575C122.189 45.6713 116.137 43.8229 114.456 47.5038Z" fill="#F44730"/>
</g>
<defs>
<clipPath id="clip0_0_248">
<rect width="122" height="110" fill="white"/>
</clipPath>
</defs>
</svg>
