<svg width="191" height="195" viewBox="0 0 191 195" fill="none" xmlns="http://www.w3.org/2000/svg">
<g clip-path="url(#clip0_0_265)">
<path d="M48.5115 131.202C48.7151 131.477 48.9266 131.763 49.138 132.049C49.5098 132.658 49.9171 133.208 50.3677 133.71C62.1063 149.657 74.9089 167.191 96.9136 163.617C115.653 160.574 133.951 140.988 130.826 120.796C127.791 101.176 106.971 89.5914 88.9332 90.5419C72.8297 91.3875 49.6885 101.176 46.4167 118.289C45.8039 123.198 45.2352 126.797 48.5115 131.202Z" fill="#F44730"/>
<path d="M36.3837 104.772C57.4822 107.873 62.4934 75.1026 41.3555 72.0081C20.257 68.9067 15.2458 101.677 36.3837 104.772Z" fill="#F44730"/>
<path d="M141.391 102.209C162.489 105.311 167.501 72.5398 146.363 69.4454C125.264 66.3439 120.253 99.1147 141.391 102.209Z" fill="#F44730"/>
<path d="M67.883 77.8182C69.8616 79.1958 72.1368 80.2206 74.7609 80.6319C85.9977 82.3731 99.468 84.5706 110.337 79.9679C118.486 76.5124 122.974 67.9291 122.336 59.321C121.899 53.5167 118.784 48.1624 115.707 43.4018C107.715 31.0664 94.7859 25.0494 80.9526 32.5785C70.4825 38.2625 61.2738 48.7854 59.3626 60.79C58.3098 67.4748 62.0041 74.5762 67.883 77.8182Z" fill="#F44730"/>
</g>
<defs>
<clipPath id="clip0_0_265">
<rect width="146.034" height="129.502" fill="white" transform="translate(86.8733 194.422) rotate(-126.504)"/>
</clipPath>
</defs>
</svg>
