<svg width="109" height="111" viewBox="0 0 109 111" fill="none" xmlns="http://www.w3.org/2000/svg">
<g clip-path="url(#clip0_0_260)">
<path d="M104.785 53.5674C100.57 51.6484 97.0002 48.1256 93.1422 45.5213C88.3642 42.3001 83.4628 39.4628 79.1516 35.474C70.6392 27.5787 63.033 16.9694 59.7241 5.29099C58.9415 2.50845 57.088 1.0555 55.0286 0.616873C53.1476 -0.397452 50.8547 -0.301502 49.0699 1.93275C41.9716 10.8012 36.0267 20.1084 28.1458 28.3874C19.7707 37.1874 11.2309 45.7817 1.88094 53.5399C-1.66132 56.4733 0.247108 60.7225 3.5285 62.2988C12.0958 69.0152 20.9927 74.7996 28.9559 82.3522C37.7703 90.7136 46.3789 99.2394 54.1499 108.574C54.2872 108.738 54.4382 108.848 54.5755 108.999C56.9507 111.836 62.9918 111.946 64.9689 107.258C66.534 103.516 69.4173 100.35 71.5591 96.9229C74.1952 92.6737 76.5155 88.3285 79.7832 84.5043C86.1538 77.075 94.6662 70.4408 104.044 67.4252C109.59 67.0551 111.265 56.5007 104.757 53.5399L104.785 53.5674ZM71.8063 76.5267C67.0009 82.0507 62.0582 89.0139 58.1727 95.9771C51.4863 88.4108 44.3194 81.3105 36.9878 74.361C30.0955 67.8227 22.5441 62.6552 15.0889 57.0352C22.448 50.497 29.3815 43.5201 36.164 36.3787C41.6421 30.6217 46.1592 24.3987 50.7861 18.1619C55.3581 28.4971 62.2916 37.859 70.1312 45.2472C75.9938 50.7711 83.298 56.4321 90.6846 61.0514C83.5314 65.0402 77.0373 70.4819 71.7925 76.5267H71.8063Z" fill="#F1B940"/>
</g>
<defs>
<clipPath id="clip0_0_260">
<rect width="109" height="111" fill="white"/>
</clipPath>
</defs>
</svg>
