<svg width="126" height="106" viewBox="0 0 126 106" fill="none" xmlns="http://www.w3.org/2000/svg">
<g clip-path="url(#clip0_0_243)">
<path d="M26.99 35.8887C30.0956 41.6042 34.1955 46.8288 38.7142 51.7554C34.2653 49.2132 29.7815 46.8113 25.3675 44.6548C18.7901 41.4639 -0.0174346 35.2575 1.21301e-05 48.7749C1.21301e-05 59.5923 17.4293 67.0961 25.3152 70.5324C31.91 73.4077 38.0163 75.5992 44.2797 76.6512C34.1606 81.9109 23.4484 89.8179 33.0615 97.1814C38.7666 101.547 45.1521 100.442 50.3163 96.0068C53.4567 93.3068 56.1086 89.9582 58.5337 86.592C60.1039 84.418 61.3775 81.3673 62.9477 78.7726C65.774 83.2258 69.1413 87.3458 72.0897 91.7114C74.637 95.4808 77.1842 99.0048 80.7956 101.845C84.9654 105.141 91.159 108.174 95.8172 103.861C101.261 98.8295 97.5794 91.3607 93.8109 86.6446C90.9671 83.0855 87.3382 78.7726 83.2731 75.1785C93.0607 74.372 102.831 72.2155 111.205 67.1662C117.678 63.2565 128.652 55.2443 125.459 46.2502C120.435 32.1192 103.319 39.2198 88.6118 48.81C90.7751 44.1113 92.4675 39.2198 93.4968 34.2056C95.5032 24.3875 94.9623 8.1176 85.576 1.80599C74.3404 -5.75042 66.7336 12.2552 65.3553 20.3376C63.8026 29.3842 63.4013 38.0802 63.5234 46.8288C60.6447 39.588 57.5043 32.4348 54.3813 25.2992C50.6129 16.6733 42.8316 3.94492 31.596 9.02927C20.7267 13.9383 22.2794 27.1752 27.0249 35.8887H26.99Z" fill="#64651C"/>
</g>
<defs>
<clipPath id="clip0_0_243">
<rect width="126" height="106" fill="white"/>
</clipPath>
</defs>
</svg>
