<svg width="162" height="28" viewBox="0 0 162 28" fill="none" xmlns="http://www.w3.org/2000/svg">
<path d="M32 20.7722C31.8047 20.5655 31.8096 19.3647 30.6942 19.0248C28.9808 18.5009 28.5561 17.0198 28.3975 17.4899C27.9752 18.7331 29.4372 19.9367 29.4372 19.9367C29.4372 19.9367 28.273 20.4493 27.4236 19.6451C25.2197 17.9657 27.3285 13.5477 28.273 13.4373C27.5481 14.2416 29.4836 15.4367 30.4453 17.0877C31.4264 18.7785 29.8863 20.37 29.4372 20.557C28.8539 20.8005 27.9582 20.7042 27.5481 20.4097C26.7964 19.8744 25.781 18.7756 25 19.2401C26.3229 20.5173 26.5743 21.3584 27.8947 21.8342C28.8271 22.1684 29.3176 21.4887 30.1304 21.4689C30.5453 21.4575 31.4874 21.7153 31.5631 22.1032" fill="url(#paint0_linear_0_1)"/>
<path d="M37.3161 12.8811C36.9948 11.7165 36.5434 10.664 35.9646 9.71759C35.383 8.77414 34.6971 7.95156 33.9042 7.24692C33.1142 6.54522 32.2374 5.99684 31.2708 5.60767C30.3072 5.21554 29.3059 5.01801 28.267 5.01801C26.5365 5.01801 24.9362 5.53101 23.4661 6.55407C21.9932 7.58008 20.8327 8.97462 19.9791 10.7436C19.1254 12.5096 18.7 14.4319 18.7 16.5105C18.7 18.589 19.1254 20.5143 19.9791 22.2803C20.8327 24.0463 21.9932 25.4438 23.4661 26.4669C24.9362 27.4929 26.5365 28.0029 28.267 28.0029C29.9975 28.0029 31.592 27.4929 33.0534 26.4669C34.5119 25.4438 35.6666 24.0463 36.5202 22.2803C37.3739 20.5143 37.7993 18.5949 37.7993 16.5252C37.7993 15.2604 37.6373 14.0457 37.3161 12.8811ZM32.9956 22.1005C32.5152 23.8075 31.8525 25.1578 31.0133 26.1514C30.1712 27.145 29.2625 27.6433 28.2873 27.6433C27.3121 27.6433 26.4005 27.1509 25.5613 26.1662C24.7192 25.1608 24.0594 23.8075 23.5761 22.1005C23.0957 20.3934 22.8526 18.5301 22.8526 16.5105C22.8526 14.4909 23.0957 12.6305 23.5761 10.9234C24.0594 9.21638 24.7192 7.86606 25.5613 6.87249C26.4005 5.87891 27.3092 5.38065 28.2873 5.38065C29.2654 5.38065 30.1712 5.87891 31.0133 6.87249C31.8525 7.86606 32.5152 9.21638 32.9956 10.9234C33.4788 12.6305 33.719 14.4938 33.719 16.5105C33.719 18.5271 33.4788 20.3934 32.9956 22.1005ZM55.8829 5.01801H56.2389V21.9766C56.2389 22.6194 56.1202 23.2414 55.8829 23.8458C55.391 25.0723 54.4794 26.0689 53.1483 26.8443C51.8171 27.6167 50.3152 28.0029 48.6396 28.0029C47.0828 28.0029 45.6532 27.6521 44.351 26.9475C43.3642 26.405 42.5771 25.718 41.9867 24.8836C41.3964 24.0493 41.0809 23.15 41.0404 22.1889V5.01801H44.351V23.1825C44.351 23.6631 44.4204 24.1318 44.5593 24.5829C44.6982 25.034 44.8979 25.4409 45.1642 25.8035C45.4304 26.1662 45.7371 26.4816 46.0815 26.7529C46.4259 27.0241 46.8165 27.2393 47.2506 27.4015C47.6847 27.5607 48.1361 27.6433 48.6107 27.6433H48.6396C50.6509 27.6433 52.3611 27.0919 53.7704 25.9863C55.1797 24.8807 55.8858 23.5451 55.8858 21.9796V5.01801H55.8829ZM76.0183 24.5092H76.4031V28.0029H60.9674V5.01801H64.278V27.6433H72.971C73.5238 27.6433 74.036 27.5047 74.5077 27.2216C74.9794 26.9416 75.3498 26.5583 75.616 26.0777C75.8822 25.5971 76.0154 25.0723 76.0154 24.5122L76.0183 24.5092ZM110.137 5.01801H113.447V28.0029H110.137V16.8879H101.533V28.0029H98.2227V5.01801H101.533V16.5252H110.137V5.01801ZM119.799 3.32568C119.799 2.29673 119.38 1.86922 118.485 1.86922C118.196 1.86922 118.182 1.85448 118.182 1.76603C118.182 1.66284 118.21 1.6481 118.485 1.6481C119.38 1.6481 119.814 1.20585 119.814 0.176898C119.814 0.029483 119.828 0 119.915 0C120.002 0 120.031 0.0147415 120.031 0.176898C120.031 1.20585 120.378 1.6481 121.402 1.6481C121.634 1.6481 121.648 1.67758 121.648 1.76603C121.648 1.83974 121.634 1.86922 121.402 1.86922C120.378 1.86922 120.016 2.29673 120.016 3.32568C120.016 3.53206 119.987 3.5468 119.915 3.5468C119.814 3.5468 119.799 3.53206 119.799 3.32568ZM121.698 28H118.387V5.01801H121.698V28.0029V28ZM141.48 5.01801H141.836V28.0029H141.48L126.961 6.4951V28.0029H126.605V5.01801H130.391L141.48 21.4961V5.01801ZM158.6 5.38065H150.083V16.5252H158.481V16.8879H150.083V27.6433H158.6C159.448 27.6433 160.168 27.3337 160.759 26.7086C161.349 26.1072 161.647 25.3731 161.647 24.5092H162.003V28.0029H146.776V5.01801H162.003V8.51174H161.647C161.647 7.64789 161.352 6.91081 160.759 6.29757C160.168 5.68432 159.448 5.3777 158.6 5.3777V5.38065ZM15.0509 20.7737C14.9322 20.4111 14.8338 20.1516 14.7557 19.9895C14.6544 19.789 14.5878 19.6711 14.5473 19.6298L14.31 19.2966C13.8383 18.6362 13.1293 18.0023 12.1831 17.4009C11.8474 17.2004 11.4683 16.9881 11.0429 16.767C10.6204 16.5459 10.2905 16.3866 10.0532 16.2864C9.8159 16.1862 9.42234 16.0152 8.86962 15.7734C8.31689 15.5316 7.9841 15.3931 7.86546 15.3518C7.05518 15.0098 6.40696 14.7179 5.91211 14.4791C5.26389 14.1577 4.70249 13.8246 4.2279 13.4826C3.2411 12.7425 2.70863 11.8286 2.6305 10.7436C2.55237 9.51711 2.97487 8.38202 3.90379 7.33832C4.53465 6.63662 5.33045 6.0735 6.29699 5.65189C6.71081 5.47204 7.15646 5.38065 7.62816 5.38065C8.24455 5.38065 8.87251 5.4632 9.51205 5.6342C9.51784 5.6342 9.52362 5.63715 9.52941 5.6401C9.68568 5.67548 9.83905 5.72265 9.99532 5.77277C10.9792 6.0735 11.6651 6.71623 12.0499 7.70096C12.2641 8.25229 12.3509 8.80362 12.3075 9.35495V9.3638C12.3046 10.1156 12.1136 10.7112 12.0442 10.9117C13.4592 10.7583 14.5242 10.1333 14.6255 9.39033C14.6978 8.85079 14.2522 8.34074 13.5634 7.55059C13.0773 6.99631 12.594 6.60714 12.2265 6.36538C12.2178 6.35653 12.2062 6.35064 12.1975 6.34474C11.8532 6.12951 11.4885 5.94082 11.1037 5.77277C10.713 5.60177 10.3223 5.46025 9.92876 5.35116C9.16189 5.13004 8.39792 5.01801 7.62816 5.01801C7.61948 5.01506 7.6079 5.01506 7.59922 5.01801C7.2346 5.01801 6.85261 5.03864 6.46194 5.07992C6.37223 5.08876 6.28252 5.09761 6.18992 5.1094C6.17835 5.10645 6.16677 5.1094 6.1552 5.1094C5.84556 5.14478 5.52723 5.18901 5.20312 5.24208C4.76905 5.31284 4.34655 5.41897 3.93273 5.55754C3.51891 5.69906 3.17454 5.85827 2.89673 6.04107C2.10961 6.54228 1.47875 7.17616 1.00416 7.93682C0.471696 8.76235 0.156267 9.65568 0.0578768 10.6198C0.0202569 10.8615 0 11.1121 0 11.3716C0 11.7136 0.0405137 12.0851 0.118647 12.486L0.237295 12.8782C0.274915 13.058 0.355942 13.2998 0.471696 13.6005C0.847895 14.4437 1.43824 15.228 2.24851 15.9503C3.1919 16.7758 4.6504 17.6072 6.624 18.4505L8.72203 19.3261C9.41076 19.5856 10.0532 19.8656 10.6435 20.1693C11.2541 20.4907 11.7287 20.8209 12.0644 21.1629C12.3972 21.5432 12.5853 21.9353 12.6258 22.3363C12.7445 23.5422 12.3191 24.6684 11.3525 25.7121C10.794 26.3342 10.0879 26.8531 9.23135 27.257C9.22267 27.257 9.21398 27.2629 9.2082 27.2659C9.13585 27.3042 9.0635 27.3366 8.98826 27.3691C8.79727 27.4516 8.5947 27.5165 8.38635 27.5607C8.38056 27.5637 8.37477 27.5637 8.36898 27.5666C8.06513 27.658 7.83073 27.7052 7.69182 27.714C7.25775 27.7435 5.66035 27.829 4.21922 26.8295C3.91247 26.6172 3.34238 26.2074 2.93725 25.4527C2.15591 23.9962 2.65076 22.4572 2.7723 22.1122C1.42087 22.2597 0.390668 22.8346 0.214144 23.5304C0.405138 24.0847 0.72346 24.6154 1.16911 25.1225C1.94755 26.0187 2.92278 26.7204 4.09478 27.2334C5.26679 27.7435 6.44458 28 7.62816 28H7.73813C9.7725 27.9882 11.312 27.658 12.3596 27.0064C13.1467 26.5052 13.7891 25.8713 14.2811 25.1077C14.5184 24.7687 14.6862 24.5004 14.7846 24.3117C14.883 24.12 14.9814 23.8193 15.0798 23.4065C15.1782 22.9967 15.2274 22.528 15.2274 22.0061C15.2274 21.5845 15.1695 21.1717 15.0509 20.7708V20.7737ZM94.6314 20.7737C94.5128 20.4111 94.4144 20.1516 94.3363 19.9895C94.235 19.789 94.1684 19.6711 94.1279 19.6298L93.8906 19.2966C93.4189 18.6362 92.7099 18.0023 91.7636 17.4009C91.428 17.2004 91.0489 16.9881 90.6235 16.767C90.201 16.5459 89.8711 16.3866 89.6338 16.2864C89.3965 16.1862 89.0029 16.0152 88.4502 15.7734C87.8975 15.5316 87.5647 15.3931 87.446 15.3518C86.6358 15.0098 85.9875 14.7179 85.4927 14.4791C84.8445 14.1577 84.2831 13.8246 83.8085 13.4826C82.8217 12.7425 82.2892 11.8286 82.2111 10.7436C82.1329 9.51711 82.5554 8.38202 83.4844 7.33832C84.1152 6.63662 84.911 6.0735 85.8776 5.65189C86.2914 5.47204 86.737 5.38065 87.2087 5.38065C87.8251 5.38065 88.4531 5.4632 89.0926 5.6342C89.0984 5.6342 89.1042 5.63715 89.11 5.6401C89.2663 5.67548 89.4196 5.72265 89.5759 5.77277C90.5598 6.0735 91.2456 6.71623 91.6305 7.70096C91.8447 8.25229 91.9315 8.80362 91.8881 9.35495V9.3638C91.8852 10.1156 91.6942 10.7112 91.6247 10.9117C93.0398 10.7583 94.1048 10.1333 94.206 9.39033C94.2784 8.85079 93.8327 8.34074 93.144 7.55059C92.6578 6.99631 92.1746 6.60714 91.807 6.36538C91.7984 6.35653 91.7868 6.35064 91.7781 6.34474C91.4337 6.12951 91.0691 5.94082 90.6842 5.77277C90.2936 5.60177 89.9029 5.46025 89.5093 5.35116C88.7425 5.13004 87.9785 5.01801 87.2087 5.01801C87.2001 5.01506 87.1885 5.01506 87.1798 5.01801C86.8152 5.01801 86.4332 5.03864 86.0425 5.07992C85.9528 5.08876 85.8631 5.09761 85.7705 5.1094C85.7589 5.10645 85.7473 5.1094 85.7358 5.1094C85.4261 5.14478 85.1078 5.18901 84.7837 5.24208C84.3496 5.31284 83.9271 5.41897 83.5133 5.55754C83.0995 5.69906 82.7551 5.85827 82.4773 6.04107C81.6902 6.54228 81.0593 7.17616 80.5847 7.93682C80.0523 8.76235 79.7368 9.65568 79.6385 10.6198C79.6008 10.8615 79.5806 11.1121 79.5806 11.3716C79.5806 11.7136 79.6211 12.0851 79.6992 12.486L79.8179 12.8782C79.8555 13.058 79.9365 13.2998 80.0523 13.6005C80.4285 14.4437 81.0188 15.228 81.8291 15.9503C82.7725 16.7758 84.231 17.6072 86.2046 18.4505L88.3026 19.3261C88.9913 19.5856 89.6338 19.8656 90.2241 20.1693C90.8347 20.4907 91.3093 20.8209 91.645 21.1629C91.9778 21.5432 92.1659 21.9353 92.2064 22.3363C92.3251 23.5422 91.8997 24.6684 90.9331 25.7121C90.3746 26.3342 89.6685 26.8531 88.8119 27.257C88.8032 27.257 88.7946 27.2629 88.7888 27.2659C88.7164 27.3042 88.6441 27.3366 88.5688 27.3691C88.3778 27.4516 88.1753 27.5165 87.9669 27.5607C87.9611 27.5637 87.9554 27.5637 87.9496 27.5666C87.6457 27.658 87.4113 27.7052 87.2724 27.714C86.8383 27.7435 85.2409 27.829 83.7998 26.8295C83.493 26.6172 82.923 26.2074 82.5178 25.4527C81.7365 23.9962 82.2313 22.4572 82.3529 22.1122C81.0014 22.2597 79.9712 22.8346 79.7947 23.5304C79.9857 24.0847 80.304 24.6154 80.7497 25.1225C81.5281 26.0187 82.5034 26.7204 83.6754 27.2334C84.8474 27.7435 86.0252 28 87.2087 28H87.3187C89.3531 27.9882 90.8926 27.658 91.9402 27.0064C92.7273 26.5052 93.3697 25.8713 93.8617 25.1077C94.099 24.7687 94.2668 24.5004 94.3652 24.3117C94.4636 24.12 94.562 23.8193 94.6604 23.4065C94.7588 22.9967 94.808 22.528 94.808 22.0061C94.808 21.5845 94.7501 21.1717 94.6314 20.7708V20.7737Z" fill="url(#paint1_linear_0_1)"/>
<defs>
<linearGradient id="paint0_linear_0_1" x1="28.5" y1="52.9072" x2="28.5" y2="6.50446" gradientUnits="userSpaceOnUse">
<stop offset="0.11" stop-color="#C2402D"/>
<stop offset="0.21" stop-color="#FCB415"/>
<stop offset="0.34" stop-color="#C2402D"/>
<stop offset="0.6" stop-color="#F2643A"/>
<stop offset="0.74" stop-color="#FCB415"/>
<stop offset="0.79" stop-color="#C2402D"/>
</linearGradient>
<linearGradient id="paint1_linear_0_1" x1="-9.05193" y1="14.3464" x2="176.42" y2="13.9374" gradientUnits="userSpaceOnUse">
<stop offset="0.11" stop-color="#C2402D"/>
<stop offset="0.21" stop-color="#FCB415"/>
<stop offset="0.34" stop-color="#C2402D"/>
<stop offset="0.6" stop-color="#F2643A"/>
<stop offset="0.74" stop-color="#FCB415"/>
<stop offset="0.79" stop-color="#C2402D"/>
</linearGradient>
</defs>
</svg>
