<svg width="176" height="30" viewBox="0 0 176 30" fill="none" xmlns="http://www.w3.org/2000/svg">
<g clip-path="url(#clip0_0_311)">
<path d="M36.8938 21.9126C36.8938 21.9126 36.3153 24.8147 35.7242 24.6979C35.4035 24.6347 35.523 22.7431 33.9825 22.3358C31.7754 21.7515 31.2284 20.1 31.024 20.6242C30.4801 22.0105 32.3634 23.3526 32.3634 23.3526C32.3634 23.3526 30.8637 23.9242 29.7696 23.0273C26.9307 21.1547 29.647 16.2284 30.8637 16.1052C29.93 17.0021 32.4231 18.3347 33.6618 20.1758C34.9257 22.061 32.9418 23.8358 32.3634 24.0442C31.612 24.3158 30.4581 24.2084 29.93 23.88C28.9616 23.2831 27.6538 22.0579 26.6477 22.5758C28.3517 24 28.6755 24.9379 30.3764 25.4684C31.5774 25.841 32.2093 25.0831 33.2562 25.061C33.841 25.0484 35.391 25.5473 35.2558 26.0494C34.8219 27.6442 38.6795 27.2368 36.5133 26.3652" fill="white"/>
<path d="M30.7097 5.37158C31.8384 5.37158 32.9262 5.58 33.9731 6C35.02 6.42 35.9727 7.00737 36.8341 7.75895C37.6924 8.51053 38.4375 9.39474 39.0694 10.4053C39.7014 11.4158 40.1918 12.5463 40.5408 13.7937C40.8898 15.0411 41.0658 16.3421 41.0658 17.6968C41.0658 19.9137 40.6037 21.9663 39.6762 23.8611C38.7487 25.7558 37.4943 27.2495 35.9098 28.3453C34.3252 29.4411 32.5929 29.9905 30.7129 29.9905C28.8328 29.9905 27.0942 29.4411 25.494 28.3453C23.8968 27.2495 22.633 25.7526 21.7055 23.8611C20.7781 21.9695 20.3159 19.9074 20.3159 17.6811C20.3159 15.4547 20.7781 13.3958 21.7055 11.5011C22.633 9.60948 23.8937 8.11263 25.494 7.01684C27.0911 5.92106 28.8297 5.37158 30.7129 5.37158H30.7097ZM27.767 28.0232C28.6788 29.0779 29.6659 29.6053 30.7286 29.6053C31.7912 29.6053 32.7753 29.0716 33.6902 28.0074C34.6019 26.9432 35.3219 25.4968 35.8469 23.6684C36.3719 21.84 36.6329 19.8442 36.6329 17.6842C36.6329 15.5242 36.3719 13.5284 35.8469 11.7C35.3219 9.87158 34.6051 8.42527 33.6902 7.36106C32.7753 6.29684 31.7912 5.76316 30.7286 5.76316C29.6659 5.76316 28.6788 6.29684 27.767 7.36106C26.8521 8.42527 26.1353 9.87158 25.6103 11.7C25.0852 13.5284 24.8243 15.5242 24.8243 17.6842C24.8243 19.8442 25.0852 21.8432 25.6103 23.6684C26.1353 25.4968 26.8521 26.9495 27.767 28.0232Z" fill="white"/>
<path d="M60.7123 5.37158H61.099V23.5358C61.099 24.2242 60.9701 24.8905 60.7123 25.5379C60.1779 26.8516 59.1875 27.9189 57.7413 28.7495C56.2951 29.5768 54.6634 29.9905 52.8431 29.9905C51.1517 29.9905 49.5986 29.6147 48.1838 28.86C47.1117 28.2789 46.2566 27.5432 45.6152 26.6495C44.9739 25.7558 44.6312 24.7926 44.5872 23.7632V5.37158H48.1838V24.8274C48.1838 25.3421 48.2593 25.8442 48.4102 26.3274C48.5611 26.8105 48.778 27.2463 49.0672 27.6347C49.3565 28.0232 49.6897 28.3611 50.0639 28.6516C50.438 28.9421 50.8624 29.1726 51.334 29.3463C51.8056 29.5168 52.2961 29.6053 52.8117 29.6053H52.8431C55.0281 29.6053 56.8862 29.0147 58.4173 27.8305C59.9484 26.6463 60.7155 25.2158 60.7155 23.5389V5.37158H60.7123Z" fill="white"/>
<path d="M82.5876 26.2484H83.0058V29.9905H66.2361V5.37158H69.8327V29.6053H79.2771C79.8776 29.6053 80.434 29.4568 80.9465 29.1537C81.459 28.8537 81.8614 28.4432 82.1506 27.9284C82.4399 27.4137 82.5845 26.8516 82.5845 26.2516L82.5876 26.2484Z" fill="white"/>
<path d="M119.655 5.37158H123.251V29.9905H119.655V18.0853H110.308V29.9905H106.711V5.37158H110.308V17.6968H119.655V5.37158Z" fill="white"/>
<path d="M130.152 3.56211C130.152 2.46 129.696 2.00211 128.725 2.00211C128.41 2.00211 128.395 1.98632 128.395 1.89158C128.395 1.78105 128.426 1.76526 128.725 1.76526C129.696 1.76526 130.168 1.29158 130.168 0.189474C130.168 0.031579 130.184 0 130.278 0C130.372 0 130.404 0.0157895 130.404 0.189474C130.404 1.29158 130.781 1.76526 131.894 1.76526C132.145 1.76526 132.161 1.79684 132.161 1.89158C132.161 1.97053 132.145 2.00211 131.894 2.00211C130.781 2.00211 130.388 2.46 130.388 3.56211C130.388 3.78316 130.357 3.79895 130.278 3.79895C130.168 3.79895 130.152 3.78316 130.152 3.56211Z" fill="white"/>
<path d="M132.215 29.9905H128.618V5.37158H132.215V29.9905Z" fill="white"/>
<path d="M153.706 5.37158H154.093V29.9905H153.706L137.933 6.95369V29.9905H137.547V5.37158H141.659L153.706 23.0211V5.37158Z" fill="white"/>
<path d="M172.306 5.76H163.053V17.6968H172.177V18.0853H163.053V29.6053H172.306C173.227 29.6053 174.01 29.2737 174.651 28.6042C175.293 27.96 175.616 27.1737 175.616 26.2484H176.003V29.9905H159.46V5.37158H176.003V9.11369H175.616C175.616 8.18842 175.296 7.39895 174.651 6.74211C174.01 6.08527 173.227 5.75684 172.306 5.75684V5.76Z" fill="white"/>
<path d="M16.3515 22.2473C16.2226 21.8589 16.1158 21.581 16.0309 21.4073C15.9208 21.1926 15.8485 21.0662 15.8045 21.022L15.5467 20.6652C15.0342 19.9578 14.264 19.2789 13.2359 18.6347C12.8712 18.4199 12.4594 18.1926 11.9972 17.9557C11.5382 17.7189 11.1798 17.5484 10.922 17.441C10.6642 17.3336 10.2366 17.1505 9.63613 16.8915C9.03564 16.6326 8.67409 16.4841 8.54519 16.4399C7.66489 16.0736 6.96065 15.761 6.42304 15.5052C5.7188 15.161 5.10888 14.8041 4.59327 14.4378C3.52119 13.6452 2.94271 12.6662 2.85783 11.5041C2.77294 10.1905 3.23195 8.97467 4.24115 7.85677C4.92653 7.10519 5.79111 6.50204 6.84118 6.05046C7.29076 5.85782 7.77492 5.75993 8.28738 5.75993C8.95704 5.75993 9.63927 5.84835 10.3341 6.03151C10.3404 6.03151 10.3467 6.03467 10.3529 6.03783C10.5227 6.07572 10.6893 6.12625 10.8591 6.17993C11.928 6.50204 12.6732 7.19046 13.0913 8.24519C13.3239 8.83572 13.4183 9.42625 13.3711 10.0168V10.0262C13.368 10.8315 13.1605 11.4694 13.085 11.6841C14.6224 11.5199 15.7794 10.8505 15.8894 10.0547C15.968 9.47677 15.4838 8.93046 14.7356 8.08414C14.2074 7.49046 13.6824 7.07361 13.2831 6.81467C13.2736 6.80519 13.2611 6.79888 13.2516 6.79256C12.8775 6.56204 12.4814 6.35993 12.0632 6.17993C11.6388 5.99677 11.2144 5.84519 10.7868 5.72835C9.95366 5.49151 9.12367 5.37151 8.28738 5.37151C8.27795 5.36835 8.26538 5.36835 8.25594 5.37151C7.85981 5.37151 7.44481 5.39361 7.02038 5.43782C6.92292 5.4473 6.82546 5.45677 6.72485 5.4694C6.71228 5.46625 6.6997 5.4694 6.68713 5.4694C6.35073 5.5073 6.00489 5.55467 5.65277 5.61151C5.18119 5.6873 4.72217 5.80098 4.27259 5.9494C3.82301 6.10098 3.44888 6.27151 3.14707 6.4673C2.29192 7.00414 1.60655 7.68309 1.09094 8.49782C0.51246 9.38204 0.169772 10.3389 0.0628785 11.3715C0.0220075 11.6305 0 11.8989 0 12.1768C0 12.5431 0.0440149 12.941 0.128901 13.3705L0.257802 13.7905C0.298673 13.9831 0.386703 14.242 0.51246 14.5641C0.92117 15.4673 1.56253 16.3073 2.44283 17.081C3.46775 17.9652 5.05229 18.8557 7.19644 19.7589L9.47579 20.6968C10.224 20.9747 10.922 21.2747 11.5634 21.5999C12.2267 21.9441 12.7423 22.2978 13.107 22.6641C13.4686 23.0715 13.6729 23.4915 13.7169 23.921C13.8458 25.2126 13.3837 26.4189 12.3336 27.5368C11.7268 28.2031 10.9597 28.7589 10.0291 29.1915C10.0197 29.1915 10.0103 29.1978 10.004 29.201C9.92537 29.242 9.84677 29.2768 9.76503 29.3115C9.55753 29.3999 9.33745 29.4694 9.11109 29.5168C9.1048 29.5199 9.09852 29.5199 9.09223 29.5231C8.76212 29.621 8.50746 29.6715 8.35655 29.681C7.88496 29.7126 6.14952 29.8041 4.58384 28.7336C4.25059 28.5062 3.63123 28.0673 3.19108 27.2589C2.34222 25.6989 2.87983 24.0505 3.01188 23.681C1.54367 23.8389 0.42443 24.4547 0.23265 25.1999C0.440149 25.7936 0.785981 26.362 1.27015 26.9052C2.11586 27.8652 3.17536 28.6168 4.44865 29.1662C5.72194 29.7126 7.00152 29.9873 8.28738 29.9873H8.40685C10.617 29.9747 12.2896 29.621 13.4277 28.9231C14.2828 28.3862 14.9808 27.7073 15.5153 26.8894C15.7731 26.5262 15.9554 26.2389 16.0623 26.0368C16.1692 25.8315 16.2761 25.5094 16.383 25.0673C16.4899 24.6284 16.5433 24.1262 16.5433 23.5673C16.5433 23.1157 16.4804 22.6736 16.3515 22.2441V22.2473Z" fill="white"/>
<path d="M14.7356 8.08414C14.2074 7.49046 13.6824 7.07361 13.2831 6.81467C13.2736 6.80519 13.2611 6.79888 13.2516 6.79256C13.2076 6.76414 13.1636 6.73572 13.1227 6.71046C12.5348 6.35361 11.9249 6.07256 11.2961 5.87677C11.1263 5.82309 10.9566 5.77256 10.7868 5.72835C9.95995 5.50414 9.12681 5.38414 8.28738 5.37151C8.27795 5.36835 8.26537 5.36835 8.25594 5.37151C7.98242 5.36519 7.71204 5.37151 7.43852 5.39046C7.19958 5.40625 6.96379 5.43151 6.72485 5.4694C6.71227 5.46625 6.6997 5.4694 6.68712 5.4694C6.29099 5.52625 5.898 5.60835 5.50501 5.71572C4.86365 5.87993 4.24744 6.12625 3.65009 6.46414C3.04017 6.80204 2.4837 7.23782 1.98381 7.77151C1.4965 8.31467 1.09723 8.94625 0.801697 9.66625C0.521888 10.3862 0.374124 11.141 0.352116 11.9305C0.308101 12.7515 0.474729 13.5536 0.848856 14.3305C1.14124 14.8989 1.49336 15.382 1.90521 15.7862H6.15894C5.72823 15.6252 5.31008 15.4484 4.89823 15.2715C3.78843 14.8073 2.95843 14.1694 2.41767 13.3578C2.1693 12.9378 2.03726 12.4578 2.01525 11.9115C1.98381 11.3431 2.04984 10.7905 2.20703 10.2568C2.56229 9.15782 2.96157 7.89782 3.96763 7.25993C5.70307 6.15782 7.26246 5.71256 7.74034 5.68098C8.0956 5.65572 9.16139 5.59888 10.3341 6.02835C10.3404 6.02835 10.3467 6.03151 10.3529 6.03467C10.7365 6.17361 11.1295 6.36625 11.513 6.62835C11.8432 6.85572 12.4657 7.29467 12.9058 8.10309C13.2611 8.75677 13.3711 9.4294 13.3711 10.0136V10.0231C13.368 10.8284 13.1605 11.4662 13.085 11.681C14.6224 11.5168 15.7794 10.8473 15.8894 10.0515C15.968 9.47361 15.4838 8.9273 14.7356 8.08098V8.08414Z" fill="white"/>
<path d="M15.248 21.0346C14.9556 20.4662 14.6035 19.9831 14.1916 19.5789H9.9379C10.3655 19.7399 10.7868 19.9168 11.1986 20.0936C12.3084 20.5578 13.1384 21.1957 13.6792 22.0073C13.9244 22.4273 14.0596 22.9073 14.0785 23.4536C14.1099 24.022 14.047 24.5746 13.8898 25.1083C13.5346 26.2073 13.1321 27.4673 12.1292 28.1052C11.3684 28.5852 10.6453 28.942 10.0291 29.1946C10.0196 29.1946 10.0102 29.201 10.0039 29.2041C9.66753 29.3399 9.36885 29.4441 9.11105 29.5199C9.10476 29.5231 9.09848 29.5231 9.09219 29.5262C8.76208 29.6241 8.50742 29.6746 8.35651 29.6841C7.88492 29.7157 6.14947 29.8073 4.5838 28.7368C4.25055 28.5094 3.63119 28.0704 3.19104 27.262C2.34218 25.702 2.87979 24.0536 3.01184 23.6841C1.54363 23.842 0.42439 24.4578 0.23261 25.2031C0.220035 25.241 0.213747 25.2757 0.207459 25.3136C0.125717 25.8915 0.609881 26.4378 1.35813 27.2841C1.96177 27.9631 2.5654 28.4083 2.97411 28.6578C3.56203 29.0146 4.1688 29.2957 4.79759 29.4915C5.98599 29.8736 7.19011 30.041 8.40681 29.9904C8.48855 29.9873 8.57344 29.9841 8.65518 29.9778C9.30597 29.9336 9.95048 29.8231 10.5918 29.6494C11.2332 29.4852 11.8494 29.2389 12.4468 28.901C13.0567 28.5631 13.61 28.1273 14.1099 27.5936C14.6003 27.0504 14.9996 26.4189 15.2951 25.6989C15.575 24.9789 15.7227 24.2241 15.7447 23.4346C15.7856 22.6136 15.6221 21.8115 15.248 21.0346Z" fill="white"/>
<path d="M102.81 22.2473C102.681 21.8589 102.574 21.581 102.489 21.4073C102.379 21.1926 102.307 21.0662 102.263 21.022L102.005 20.6652C101.492 19.9578 100.722 19.2789 99.6939 18.6347C99.3292 18.4199 98.9174 18.1926 98.4552 17.9557C97.9962 17.7189 97.6378 17.5484 97.38 17.441C97.1222 17.3336 96.6946 17.1505 96.0941 16.8915C95.4936 16.6326 95.1321 16.4841 95.0032 16.4399C94.1229 16.0736 93.4187 15.761 92.881 15.5052C92.1768 15.161 91.5669 14.8041 91.0513 14.4378C89.9792 13.6452 89.4007 12.6662 89.3158 11.5041C89.2309 10.1905 89.69 8.97467 90.6992 7.85677C91.3845 7.10519 92.2491 6.50204 93.2992 6.05046C93.7488 5.85782 94.2329 5.75993 94.7454 5.75993C95.415 5.75993 96.0973 5.84835 96.7921 6.03151C96.7984 6.03151 96.8047 6.03467 96.8109 6.03783C96.9807 6.07572 97.1474 6.12625 97.3171 6.17993C98.3861 6.50204 99.1312 7.19046 99.5493 8.24519C99.782 8.83572 99.8763 9.42625 99.8291 10.0168V10.0262C99.826 10.8315 99.6185 11.4694 99.543 11.6841C101.08 11.5199 102.237 10.8505 102.347 10.0547C102.426 9.47677 101.942 8.93046 101.194 8.08414C100.665 7.49046 100.14 7.07361 99.7411 6.81467C99.7317 6.80519 99.7191 6.79888 99.7096 6.79256C99.3355 6.56204 98.9394 6.35993 98.5212 6.17993C98.0968 5.99677 97.6724 5.84519 97.2448 5.72835C96.4117 5.49151 95.5817 5.37151 94.7454 5.37151C94.736 5.36835 94.7234 5.36835 94.714 5.37151C94.3178 5.37151 93.9028 5.39361 93.4784 5.43782C93.3809 5.4473 93.2835 5.45677 93.1829 5.4694C93.1703 5.46625 93.1577 5.4694 93.1451 5.4694C92.8087 5.5073 92.4629 5.55467 92.1108 5.61151C91.6392 5.6873 91.1802 5.80098 90.7306 5.9494C90.281 6.10098 89.9069 6.27151 89.6051 6.4673C88.7499 7.00414 88.0646 7.68309 87.5489 8.49782C86.9705 9.38204 86.6278 10.3389 86.5209 11.3715C86.48 11.6305 86.458 11.8989 86.458 12.1768C86.458 12.5431 86.502 12.941 86.5869 13.3705L86.7158 13.7905C86.7567 13.9831 86.8447 14.242 86.9705 14.5641C87.3792 15.4673 88.0205 16.3073 88.9008 17.081C89.9258 17.9652 91.5103 18.8557 93.6545 19.7589L95.9338 20.6968C96.6821 20.9747 97.38 21.2747 98.0214 21.5999C98.6847 21.9441 99.2003 22.2978 99.565 22.6641C99.9266 23.0715 100.131 23.4915 100.175 23.921C100.304 25.2126 99.8417 26.4189 98.7916 27.5368C98.1848 28.2031 97.4177 28.7589 96.4871 29.1915C96.4777 29.1915 96.4683 29.1978 96.462 29.201C96.3834 29.242 96.3048 29.2768 96.223 29.3115C96.0155 29.3999 95.7955 29.4694 95.5691 29.5168C95.5628 29.5199 95.5565 29.5199 95.5502 29.5231C95.2201 29.621 94.9655 29.6715 94.8146 29.681C94.343 29.7126 92.6075 29.8041 91.0418 28.7336C90.7086 28.5062 90.0892 28.0673 89.6491 27.2589C88.8002 25.6989 89.3378 24.0505 89.4699 23.681C88.0017 23.8389 86.8824 24.4547 86.6907 25.1999C86.8982 25.7936 87.244 26.362 87.7282 26.9052C88.5739 27.8652 89.6334 28.6168 90.9067 29.1662C92.1799 29.7126 93.4595 29.9873 94.7454 29.9873H94.8649C97.075 29.9747 98.7476 29.621 99.8857 28.9231C100.741 28.3862 101.439 27.7073 101.973 26.8894C102.231 26.5262 102.413 26.2389 102.52 26.0368C102.627 25.8315 102.734 25.5094 102.841 25.0673C102.948 24.6284 103.001 24.1262 103.001 23.5673C103.001 23.1157 102.938 22.6736 102.81 22.2441V22.2473Z" fill="white"/>
<path d="M101.194 8.08414C100.665 7.49046 100.14 7.07361 99.7411 6.81467C99.7317 6.80519 99.7191 6.79888 99.7096 6.79256C99.6656 6.76414 99.6216 6.73572 99.5807 6.71046C98.9928 6.35361 98.3829 6.07256 97.7541 5.87677C97.5843 5.82309 97.4146 5.77256 97.2448 5.72835C96.418 5.50414 95.5848 5.38414 94.7454 5.37151C94.736 5.36835 94.7234 5.36835 94.714 5.37151C94.4404 5.36519 94.1701 5.37151 93.8965 5.39046C93.6576 5.40625 93.4218 5.43151 93.1829 5.4694C93.1703 5.46625 93.1577 5.4694 93.1451 5.4694C92.749 5.52625 92.356 5.60835 91.963 5.71572C91.3217 5.87993 90.7054 6.12625 90.1081 6.46414C89.4982 6.80204 88.9417 7.23782 88.4418 7.77151C87.9545 8.31467 87.5552 8.94625 87.2597 9.66625C86.9799 10.3862 86.8321 11.141 86.8101 11.9305C86.7661 12.7515 86.9327 13.5536 87.3069 14.3305C87.5993 14.8989 87.9514 15.382 88.3632 15.7862H92.617C92.1862 15.6252 91.7681 15.4484 91.3562 15.2715C90.2464 14.8073 89.4164 14.1694 88.8757 13.3578C88.6273 12.9378 88.4953 12.4578 88.4733 11.9115C88.4418 11.3431 88.5078 10.7905 88.665 10.2568C89.0203 9.15782 89.4196 7.89782 90.4256 7.25993C92.1611 6.15782 93.7205 5.71256 94.1983 5.68098C94.5536 5.65572 95.6194 5.59888 96.7921 6.02835C96.7984 6.02835 96.8047 6.03151 96.8109 6.03467C97.1945 6.17361 97.5875 6.36625 97.9711 6.62835C98.3012 6.85572 98.9237 7.29467 99.3638 8.10309C99.7191 8.75677 99.8291 9.4294 99.8291 10.0136V10.0231C99.826 10.8284 99.6185 11.4662 99.543 11.681C101.08 11.5168 102.237 10.8473 102.347 10.0515C102.426 9.47361 101.942 8.9273 101.194 8.08098V8.08414Z" fill="white"/>
<path d="M101.706 21.0346C101.414 20.4662 101.061 19.9831 100.65 19.5789H96.3959C96.8235 19.7399 97.2448 19.9168 97.6566 20.0936C98.7664 20.5578 99.5964 21.1957 100.137 22.0073C100.382 22.4273 100.518 22.9073 100.536 23.4536C100.568 24.022 100.505 24.5746 100.348 25.1083C99.9926 26.2073 99.5901 27.4673 98.5872 28.1052C97.8264 28.5852 97.1033 28.942 96.4871 29.1946C96.4776 29.1946 96.4682 29.201 96.4619 29.2041C96.1255 29.3399 95.8269 29.4441 95.5691 29.5199C95.5628 29.5231 95.5565 29.5231 95.5502 29.5262C95.2201 29.6241 94.9654 29.6746 94.8145 29.6841C94.3429 29.7157 92.6075 29.8073 91.0418 28.7368C90.7085 28.5094 90.0892 28.0704 89.649 27.262C88.8002 25.702 89.3378 24.0536 89.4698 23.6841C88.0016 23.842 86.8824 24.4578 86.6906 25.2031C86.678 25.241 86.6718 25.2757 86.6655 25.3136C86.5837 25.8915 87.0679 26.4378 87.8161 27.2841C88.4198 27.9631 89.0234 28.4083 89.4321 28.6578C90.02 29.0146 90.6268 29.2957 91.2556 29.4915C92.444 29.8736 93.6481 30.041 94.8648 29.9904C94.9466 29.9873 95.0314 29.9841 95.1132 29.9778C95.764 29.9336 96.4085 29.8231 97.0498 29.6494C97.6912 29.4852 98.3074 29.2389 98.9048 28.901C99.5147 28.5631 100.068 28.1273 100.568 27.5936C101.058 27.0504 101.458 26.4189 101.753 25.6989C102.033 24.9789 102.181 24.2241 102.203 23.4346C102.244 22.6136 102.08 21.8115 101.706 21.0346Z" fill="white"/>
</g>
<defs>
<clipPath id="clip0_0_311">
<rect width="176" height="30" fill="white"/>
</clipPath>
</defs>
</svg>
