<svg xmlns="http://www.w3.org/2000/svg" width="34" height="28" viewBox="0 0 34 28" fill="none">
<g opacity="0.1" clip-path="url(#clip0_735_4948)">
<path d="M0.00312805 9.9994C0.118666 18.5322 4.00841 25.1385 10.4338 27.6967C10.5879 27.7538 10.7265 27.8109 10.8744 27.8606C11.774 28.17 12.495 27.914 12.9186 27.1387C13.3423 26.3633 13.2729 25.4535 12.6629 24.6099C11.5132 23.0381 10.5386 21.2948 9.76369 19.4236C9.33235 18.3738 9.32773 18.3756 10.2258 18.0441C13.4701 16.8433 15.6438 13.1119 15.5482 8.90725C15.4574 4.89594 13.0203 1.29533 9.72364 0.295269C8.09484 -0.210301 6.37203 -0.0592842 4.82233 0.724904C3.27263 1.50909 1.98263 2.88264 1.15234 4.63257C0.357445 6.25804 -0.0406685 8.11724 0.00312805 9.9994Z" fill="#FA8B02"/>
<path d="M17.7003 10.038C17.8051 18.6481 21.8458 25.3779 28.3636 27.7961C28.835 27.9802 29.2987 28.111 29.7916 27.8992C30.9131 27.4167 31.2181 25.8291 30.3755 24.6559C29.1683 22.9853 28.1429 21.1387 27.3238 19.1601C27.0696 18.5432 27.1189 18.3037 27.7212 18.0938C29.3634 17.5254 30.7995 16.3171 31.8013 14.6609C32.8031 13.0047 33.313 10.9957 33.25 8.9532C33.1268 4.79455 30.5973 1.14053 27.2221 0.243605C25.5576 -0.222148 23.8106 -0.0079805 22.2599 0.851934C20.7091 1.71185 19.4439 3.16796 18.6662 4.98793C17.9668 6.59393 17.6772 8.10968 17.7003 10.038Z" fill="#FA8B02"/>
</g>
<defs>
<clipPath id="clip0_735_4948">
<rect width="33.25" height="28" fill="white" transform="matrix(-1 0 0 1 33.25 0.00585938)"/>
</clipPath>
</defs>
</svg>