<svg width="48" height="48" viewBox="0 0 48 48" fill="none" xmlns="http://www.w3.org/2000/svg">
<path d="M22.5653 6.90663C23.0262 5.97275 23.2567 5.50582 23.5696 5.35663C23.8419 5.22683 24.1581 5.22683 24.4304 5.35663C24.7433 5.50582 24.9738 5.97275 25.4347 6.90663L29.8081 15.7666C29.9442 16.0423 30.0122 16.1801 30.1117 16.2872C30.1997 16.3819 30.3053 16.4587 30.4226 16.5132C30.5551 16.5748 30.7072 16.5971 31.0114 16.6415L40.794 18.0714C41.8241 18.222 42.3392 18.2973 42.5775 18.5489C42.7849 18.7678 42.8825 19.0686 42.843 19.3675C42.7976 19.7112 42.4247 20.0744 41.6789 20.8008L34.6029 27.6928C34.3823 27.9077 34.272 28.0151 34.2008 28.1429C34.1378 28.2561 34.0974 28.3804 34.0818 28.509C34.0642 28.6542 34.0902 28.806 34.1423 29.1095L35.8119 38.8442C35.988 39.871 36.076 40.3844 35.9106 40.689C35.7666 40.9541 35.5107 41.14 35.2141 41.1949C34.8732 41.2581 34.4122 41.0157 33.4902 40.5308L24.7447 35.9317C24.4722 35.7884 24.336 35.7167 24.1925 35.6886C24.0654 35.6636 23.9346 35.6636 23.8076 35.6886C23.664 35.7167 23.5278 35.7884 23.2553 35.9317L14.5098 40.5308C13.5878 41.0157 13.1268 41.2581 12.7859 41.1949C12.4893 41.14 12.2334 40.9541 12.0894 40.689C11.924 40.3844 12.012 39.871 12.1881 38.8442L13.8577 29.1095C13.9098 28.806 13.9358 28.6542 13.9182 28.509C13.9026 28.3804 13.8622 28.2561 13.7992 28.1429C13.728 28.0151 13.6177 27.9077 13.3971 27.6928L6.32109 20.8008C5.5753 20.0744 5.2024 19.7112 5.15702 19.3675C5.11754 19.0686 5.21508 18.7678 5.42247 18.5489C5.66084 18.2973 6.17591 18.222 7.20606 18.0714L16.9886 16.6415C17.2928 16.5971 17.4449 16.5748 17.5774 16.5132C17.6947 16.4587 17.8003 16.3819 17.8883 16.2872C17.9878 16.1801 18.0558 16.0423 18.1919 15.7666L22.5653 6.90663Z" fill="url(#paint0_linear_291_254)" stroke="#FCB415" stroke-width="0.2" stroke-linecap="round" stroke-linejoin="round"/>
<defs>
<linearGradient id="paint0_linear_291_254" x1="6.00007" y1="26.3999" x2="34.8001" y2="26.3999" gradientUnits="userSpaceOnUse">
<stop offset="0.623175" stop-color="#F1B940"/>
<stop offset="0.623175" stop-color="#F1B940" stop-opacity="0"/>
</linearGradient>
</defs>
</svg>
